# xmcd
#
# Track frame offsets: 
#        182
#        11870
#        23477
#        36252
#        52010
#        65142
#        78665
#        92490
#        105265
#        116800
#        129930
#        140582
#        151620
#        164582
#        179850
#        191830
#        203392
#        221907
#        235442
#        246840
#        259610
#        273655
#        284147
#
# Disc length: 3953 seconds
#
# Revision: 4
# Processed by: cddbd v1.5.2PL0 Copyright (c) Steve Scherf et al.
# Submitted via: ExactAudioCopy v1.0b1
#
DISCID=5d0f6f17
DTITLE=Sonny Boy Williamson - The Essential Sonny Boy Williamson (Disc
DTITLE=1)
DYEAR=1993
DGENRE=Blues
TTITLE0=Good Evening Everybody (mono)
TTITLE1=Don't Start Me To Talkin' (mono)
TTITLE2=All My Love In Vain (mono)
TTITLE3=You Killing Me (mono)
TTITLE4=Let Me Explain (mono)
TTITLE5=Your Imagination (mono)
TTITLE6=Don't Lose Your Eye (mono)
TTITLE7=Keep It To Yourself (mono)
TTITLE8=The Key (To Your Door) (alt) (mono)
TTITLE9=Have You Ever Been In Love (mono)
TTITLE10=Fattening Frogs For Snakes (mono)
TTITLE11=I Don't Know (mono)
TTITLE12=Like Wolf (mono)
TTITLE13=Cross My Heart (mono)
TTITLE14=Ninety Nine (mono)
TTITLE15=Born Blind (mono)
TTITLE16=Little Village (mono)
TTITLE17=Unseen Eye (mono)
TTITLE18=Your Funeral And My Trial (mono)
TTITLE19=Keep Your Hands Out Of My Pocket (mono)
TTITLE20=Unseeing Eye (mono)
TTITLE21=Let Your Conscience Be Your Guide (mono)
TTITLE22=The Goat (mono)
EXTD=
EXTT0=
EXTT1=
EXTT2=
EXTT3=
EXTT4=
EXTT5=
EXTT6=
EXTT7=
EXTT8=
EXTT9=
EXTT10=
EXTT11=
EXTT12=
EXTT13=
EXTT14=
EXTT15=
EXTT16=
EXTT17=
EXTT18=
EXTT19=
EXTT20=
EXTT21=
EXTT22=
PLAYORDER=
